# File created by Blade
# Date/Time:  Tue Apr 07 20:22:24 2015
#---------------------------------------------------------
:version 1.10
:name HOM
:units
  mass 1.0
  length 1.000000
  angle deg
:documentation
     Acclaim Skeleton File
:root
   axis xyz
   order TX TY TZ RX RY RZ
   position 0.000000 0.000000 0.000000
   orientation 0 0 0
:bonedata
   begin
      id 1
      name Spine_dum
      direction 0.000000 1.000000 0.000000
      length 4.885285
      axis 0.0 0.0 0.0 xyz
   end
   begin
      id 2
      name LeftUpLeg_dum
      direction 1.000000 0.000000 0.000000
      length 2.672193
      axis 0.0 0.0 0.0 xyz
   end
   begin
      id 3
      name RightUpLeg_dum
      direction -1.000000 0.000000 0.000000
      length 2.672193
      axis 0.0 0.0 0.0 xyz
   end
   begin
      id 4
      name Spine
      direction 0.000000 1.000000 0.000000
      length 0.000000
      axis 0.0 0.0 0.0 xyz
      dof rx ry rz
   end
   begin
      id 5
      name Spine_dum1
      direction 0.000000 1.000000 0.000000
      length 16.494159
      axis 0.0 0.0 0.0 xyz
   end
   begin
      id 6
      name Spine_dum2
      direction 0.000000 1.000000 0.000000
      length 10.663448
      axis 0.0 0.0 0.0 xyz
   end
   begin
      id 7
      name Spine_dum3
      direction 0.000000 1.000000 0.000000
      length 10.663448
      axis 0.0 0.0 0.0 xyz
   end
   begin
      id 8
      name Head
      direction 0.000000 1.000000 0.000000
      length 4.527550
      axis 0.0 0.0 0.0 xyz
      dof rx ry rz
   end
   begin
      id 9
      name LeftShoulder
      direction 1.000000 0.000000 0.000000
      length 7.531907
      axis 0.0 0.0 -90.0 xyz
      dof rx ry rz
   end
   begin
      id 10
      name LeftArm
      direction 1.000000 0.000000 0.000000
      length 10.229199
      axis 0.0 0.0 -90.0 xyz
      dof rx ry rz
   end
   begin
      id 11
      name LeftForeArm
      direction 1.000000 0.000000 0.000000
      length 8.673495
      axis 0.0 0.0 -90.0 xyz
      dof ry rz rx
   end
   begin
      id 12
      name LeftHand
      direction 0.000000 0.000000 0.000000
      length 0.000000
      axis 0.0 0.0 -90.0 xyz
      dof rx ry rz
   end
   begin
      id 13
      name LeftHand_dum1
      direction 0.000000 0.000000 0.000000
      length 0.000000
      axis 0.0 0.0 -90.0 xyz
   end
   begin
      id 14
      name LeftHand_dum2
      direction 1.000000 0.000000 0.000000
      length 3.937000
      axis 0.0 0.0 -90.0 xyz
   end
   begin
      id 15
      name LeftHandThumb1
      direction 0.000000 0.000000 1.000000
      length 3.937000
      axis 0.0 0.0 -90.0 xyz
      dof rx rz ry
   end
   begin
      id 16
      name RightShoulder
      direction -1.000000 0.000000 0.000000
      length 7.531907
      axis 0.0 0.0 90.0 xyz
      dof rx ry rz
   end
   begin
      id 17
      name RightArm
      direction -1.000000 0.000000 0.000000
      length 10.229199
      axis 0.0 0.0 90.0 xyz
      dof rx ry rz
   end
   begin
      id 18
      name RightForeArm
      direction -1.000000 0.000000 0.000000
      length 8.673495
      axis 0.0 0.0 90.0 xyz
      dof ry rz rx
   end
   begin
      id 19
      name RightHand
      direction 0.000000 0.000000 0.000000
      length 0.000000
      axis 0.0 0.0 90.0 xyz
      dof rx ry rz
   end
   begin
      id 20
      name RightHand_dum1
      direction 0.000000 0.000000 0.000000
      length 0.000000
      axis 0.0 0.0 90.0 xyz
   end
   begin
      id 21
      name RightHand_dum2
      direction -1.000000 0.000000 0.000000
      length 3.937000
      axis 0.0 0.0 90.0 xyz
   end
   begin
      id 22
      name RightHandThumb1
      direction 0.000000 0.000000 1.000000
      length 3.937000
      axis 0.0 0.0 90.0 xyz
      dof rx rz ry
   end
   begin
      id 23
      name LeftUpLeg
      direction 0.000000 -1.000000 0.000000
      length 16.263388
      axis 0.0 0.0 0.0 xyz
      dof rx ry rz
   end
   begin
      id 24
      name LeftLeg
      direction 0.000000 -1.000000 0.000000
      length 14.328163
      axis 0.0 0.0 0.0 xyz
      dof rx ry rz
   end
   begin
      id 25
      name LeftFoot
      direction 0.000000 -0.258819 0.965926
      length 5.031290
      axis 15.0 0.0 0.0 xyz
      dof rx ry rz
   end
   begin
      id 26
      name LeftToeBase
      direction 0.000000 0.000000 1.000000
      length 2.952750
      axis 0.0 0.0 0.0 xyz
      dof rx ry rz
   end
   begin
      id 27
      name RightUpLeg
      direction 0.000000 -1.000000 0.000000
      length 16.263388
      axis 0.0 0.0 0.0 xyz
      dof rx ry rz
   end
   begin
      id 28
      name RightLeg
      direction 0.000000 -1.000000 0.000000
      length 14.328163
      axis 0.0 0.0 0.0 xyz
      dof rx ry rz
   end
   begin
      id 29
      name RightFoot
      direction 0.000000 -0.258819 0.965926
      length 5.031290
      axis 15.0 0.0 0.0 xyz
      dof rx ry rz
   end
   begin
      id 30
      name RightToeBase
      direction 0.000000 0.000000 1.000000
      length 2.952750
      axis 0.0 0.0 0.0 xyz
      dof rx ry rz
   end
:hierarchy
   begin
      root Spine_dum LeftUpLeg_dum RightUpLeg_dum
      Spine_dum Spine
      LeftUpLeg_dum LeftUpLeg
      RightUpLeg_dum RightUpLeg
      Spine Spine_dum1 Spine_dum2 Spine_dum3
      Spine_dum1 Head
      Spine_dum2 LeftShoulder
      Spine_dum3 RightShoulder
      LeftShoulder LeftArm
      LeftArm LeftForeArm
      LeftForeArm LeftHand
      LeftHand LeftHand_dum1 LeftHand_dum2
      LeftHand_dum1 LeftHandThumb1
      RightShoulder RightArm
      RightArm RightForeArm
      RightForeArm RightHand
      RightHand RightHand_dum1 RightHand_dum2
      RightHand_dum1 RightHandThumb1
      LeftUpLeg LeftLeg
      LeftLeg LeftFoot
      LeftFoot LeftToeBase
      RightUpLeg RightLeg
      RightLeg RightFoot
      RightFoot RightToeBase
   end

# File created by Blade
# Date/Time:  Tue Apr 07 20:22:14 2015
# Frame Rate: 120.000 fps
#------------------------------------------------------
:FULLY-SPECIFIED
:DEGREES
233
root 5.334100 33.073808 -10.377269 16.617299 -12.624825 -11.174765
Spine -7.955695 2.124645 -0.377496
Head 8.278627 -11.020987 14.691165
LeftShoulder -16.465252 44.352619 17.479806
LeftArm 49.025027 -19.007632 -94.105886
LeftForeArm -3.745616 0.000000 23.520966
LeftHand 11.155972 -0.000000 10.065791
LeftHandThumb1 -26.253704 0.000000 33.147579
RightShoulder -1.670678 2.342069 -14.684749
RightArm 22.029865 -9.426009 90.205490
RightForeArm 7.419200 0.000000 13.561517
RightHand 6.627864 -0.000000 2.321595
RightHandThumb1 -24.326973 -0.000000 -32.862282
LeftUpLeg -16.056814 -0.247522 6.378154
LeftLeg 5.377377 -0.000000 -0.000000
LeftFoot -8.538318 16.109003 -9.560248
LeftToeBase -8.622338 -0.000000 0.000000
RightUpLeg -41.458550 -11.887477 6.880283
RightLeg 50.118431 -0.000000 -0.000000
RightFoot 7.121959 10.595116 26.505128
RightToeBase 7.958822 -0.000000 -0.000000
234
root 5.357934 33.074500 -10.389773 16.627593 -12.777362 -11.342974
Spine -7.896059 2.197914 -0.206869
Head 8.249604 -10.883116 14.545834
LeftShoulder -16.496451 44.346473 17.438245
LeftArm 49.061294 -18.911881 -94.019632
LeftForeArm -3.532270 -0.000000 23.519275
LeftHand 11.178010 -0.000000 9.955927
LeftHandThumb1 -26.253704 0.000000 33.147579
RightShoulder -1.568953 2.464233 -14.736226
RightArm 22.095857 -9.523442 90.289751
RightForeArm 7.438825 0.000000 13.634198
RightHand 6.655239 -0.000000 2.259720
RightHandThumb1 -24.326973 -0.000000 -32.862282
LeftUpLeg -16.057919 -0.363469 6.512490
LeftLeg 5.431324 -0.000000 -0.000000
LeftFoot -8.502496 16.436555 -9.275686
LeftToeBase -8.841483 -0.000000 0.000000
RightUpLeg -42.495137 -12.529538 7.065309
RightLeg 52.200379 -0.000000 -0.000000
RightFoot 8.094051 10.472190 25.743678
RightToeBase 8.400284 -0.000000 -0.000000
235
root 5.379969 33.075508 -10.396715 16.609499 -12.957263 -11.521096
Spine -7.820754 2.324662 -0.040316
Head 8.225423 -10.717410 14.430377
LeftShoulder -16.492998 44.332856 17.426239
LeftArm 49.074196 -18.833165 -93.934677
LeftForeArm -3.329557 -0.000000 23.537994
LeftHand 11.130955 -0.000000 9.821672
LeftHandThumb1 -26.253704 0.000000 33.147579
RightShoulder -1.469409 2.541413 -14.760211
RightArm 22.172886 -9.552404 90.376291
RightForeArm 7.407794 -0.000000 13.705455
RightHand 6.676782 -0.000000 2.321582
RightHandThumb1 -24.326973 -0.000000 -32.862282
LeftUpLeg -16.011081 -0.309447 6.615791
LeftLeg 5.489287 -0.000000 -0.000000
LeftFoot -8.514135 16.603106 -9.093852
LeftToeBase -8.991886 -0.000000 0.000000
RightUpLeg -43.474022 -13.155230 7.258793
RightLeg 54.231487 -0.000000 -0.000000
RightFoot 9.025199 10.239497 24.827227
RightToeBase 8.796153 -0.000000 -0.000000
236
root 5.401291 33.078117 -10.402506 16.598677 -13.093433 -11.686673
Spine -7.757066 2.425315 0.122735
Head 8.176659 -10.555659 14.327854
LeftShoulder -16.480413 44.285141 17.430259
LeftArm 49.048254 -18.743840 -93.828238
LeftForeArm -3.133759 0.000000 23.583623
LeftHand 11.157845 -0.000000 9.269875
LeftHandThumb1 -26.253704 0.000000 33.147579
RightShoulder -1.411900 2.583842 -14.757370
RightArm 22.281988 -9.631153 90.422709
RightForeArm 7.375500 -0.000000 13.771748
RightHand 6.613179 -0.000000 2.441779
RightHandThumb1 -24.326973 -0.000000 -32.862282
LeftUpLeg -15.981225 -0.248558 6.713799
LeftLeg 5.547652 -0.000000 -0.000000
LeftFoot -8.507001 16.710194 -8.900935
LeftToeBase -9.028622 -0.000000 0.000000
RightUpLeg -44.470295 -13.830932 7.488708
RightLeg 56.258337 -0.000000 -0.000000
RightFoot 9.799755 9.888567 23.686888
RightToeBase 9.346600 -0.000000 -0.000000
237
root 5.421203 33.082292 -10.406836 16.589877 -13.240689 -11.863217
Spine -7.703416 2.546651 0.290577
Head 8.148625 -10.409751 14.244227
LeftShoulder -16.495732 44.277770 17.410559
LeftArm 49.081730 -18.636837 -93.738026
LeftForeArm -2.941462 -0.000000 23.590851
LeftHand 11.122059 0.000000 9.595496
LeftHandThumb1 -26.253704 0.000000 33.147579
RightShoulder -1.336205 2.634716 -14.733810
RightArm 22.371566 -9.704966 90.456499
RightForeArm 7.562996 -0.000000 13.836069
RightHand 6.692825 -0.000000 2.786323
RightHandThumb1 -24.326973 -0.000000 -32.862282
LeftUpLeg -15.946356 -0.096322 6.804577
LeftLeg 5.613807 -0.000000 -0.000000
LeftFoot -8.491652 16.743602 -8.728356
LeftToeBase -9.143435 -0.000000 0.000000
RightUpLeg -45.401354 -14.417246 7.652010
RightLeg 58.224508 -0.000000 -0.000000
RightFoot 10.593068 9.504171 22.865794
RightToeBase 9.731195 -0.000000 -0.000000
238
root 5.443594 33.086141 -10.407552 16.552497 -13.400791 -11.993659
Spine -7.635635 2.710423 0.402028
Head 8.111954 -10.287894 14.173705
LeftShoulder -16.440613 44.241436 17.456544
LeftArm 49.073713 -18.547858 -93.650583
LeftForeArm -2.817371 -0.000000 23.636613
LeftHand 11.122986 -0.000000 9.665961
LeftHandThumb1 -26.253704 0.000000 33.147579
RightShoulder -1.304980 2.691208 -14.703216
RightArm 22.427068 -9.798902 90.479294
RightForeArm 7.571273 -0.000000 13.891654
RightHand 6.703163 -0.000000 2.897038
RightHandThumb1 -24.326973 -0.000000 -32.862282
LeftUpLeg -15.879275 0.044501 6.857496
LeftLeg 5.667966 -0.000000 -0.000000
LeftFoot -8.496969 16.735462 -8.666466
LeftToeBase -9.193417 -0.000000 0.000000
RightUpLeg -46.309233 -15.012877 7.773577
RightLeg 60.147374 -0.000000 -0.000000
RightFoot 11.433161 8.997307 21.986359
RightToeBase 9.967038 -0.000000 -0.000000
239
root 5.463226 33.092311 -10.407160 16.537044 -13.548533 -12.152290
Spine -7.593288 2.852872 0.544470
Head 8.081537 -10.128597 14.132696
LeftShoulder -16.436758 44.220425 17.473252
LeftArm 49.087294 -18.478905 -93.617247
LeftForeArm -2.672121 -0.000000 23.679398
LeftHand 11.156772 -0.000000 9.472502
LeftHandThumb1 -26.253704 0.000000 33.147579
RightShoulder -1.237482 2.731686 -14.663744
RightArm 22.458900 -9.790021 90.532745
RightForeArm 7.228883 0.000000 13.973236
RightHand 6.669888 0.000000 2.259201
RightHandThumb1 -24.326973 -0.000000 -32.862282
LeftUpLeg -15.826615 0.215054 6.943804
LeftLeg 5.722862 -0.000000 -0.000000
LeftFoot -8.461817 16.675601 -8.623113
LeftToeBase -9.410734 -0.000000 0.000000
RightUpLeg -47.174091 -15.556483 7.888905
RightLeg 61.977909 -0.000000 -0.000000
RightFoot 12.151509 8.490997 21.426500
RightToeBase 10.773282 -0.000000 -0.000000
240
root 5.482073 33.099580 -10.404749 16.520102 -13.666960 -12.326246
Spine -7.551176 2.970434 0.720653
Head 8.060027 -9.951104 14.050815
LeftShoulder -16.451279 44.184665 17.480199
LeftArm 49.085079 -18.387041 -93.541445
LeftForeArm -2.621590 0.000000 23.689236
LeftHand 11.127174 -0.000000 9.300713
LeftHandThumb1 -26.253704 0.000000 33.147579
RightShoulder -1.168285 2.744797 -14.631929
RightArm 22.531429 -9.902890 90.537506
RightForeArm 7.284681 0.000000 14.038230
RightHand 6.503898 -0.000000 2.334363
RightHandThumb1 -24.326973 -0.000000 -32.862282
LeftUpLeg -15.767144 0.393163 7.046743
LeftLeg 5.770318 -0.000000 -0.000000
LeftFoot -8.420861 16.575468 -8.609687
LeftToeBase -9.613401 -0.000000 0.000000
RightUpLeg -48.013545 -16.117505 8.025063
RightLeg 63.783882 -0.000000 -0.000000
RightFoot 12.840833 7.785750 21.136441
RightToeBase 11.662105 -0.000000 -0.000000
241
root 5.500047 33.109394 -10.403154 16.509777 -13.750838 -12.472267
Spine -7.528340 3.072513 0.866432
Head 8.056477 -9.825058 14.005851
LeftShoulder -16.407270 44.122956 17.533370
LeftArm 49.049218 -18.343116 -93.491942
LeftForeArm -2.566883 -0.000000 23.720091
LeftHand 11.164962 -0.000000 9.144502
LeftHandThumb1 -26.253704 0.000000 33.147579
RightShoulder -1.106159 2.761642 -14.577362
RightArm 22.589415 -9.963954 90.546529
RightForeArm 7.284357 0.000000 14.043204
RightHand 6.814609 -0.000000 2.084808
RightHandThumb1 -24.326973 -0.000000 -32.862282
LeftUpLeg -15.738196 0.616725 7.129628
LeftLeg 5.834943 -0.000000 -0.000000
LeftFoot -8.395112 16.361803 -8.668645
LeftToeBase -9.637212 -0.000000 0.000000
RightUpLeg -48.846156 -16.719895 8.160539
RightLeg 65.534359 -0.000000 -0.000000
RightFoot 13.431185 7.169035 20.475594
RightToeBase 12.748932 -0.000000 -0.000000
242
root 5.518115 33.119322 -10.400705 16.494327 -13.809041 -12.633579
Spine -7.490770 3.157193 1.048087
Head 8.028750 -9.699133 13.945972
LeftShoulder -16.404732 44.088507 17.543032
LeftArm 49.064667 -18.303726 -93.474430
LeftForeArm -2.441848 -0.000000 23.741966
LeftHand 11.152027 0.000000 9.044860
LeftHandThumb1 -26.253704 0.000000 33.147579
RightShoulder -1.056926 2.796979 -14.547246
RightArm 22.629142 -10.051736 90.566571
RightForeArm 7.165055 -0.000000 14.053538
RightHand 6.802185 -0.000000 2.079725
RightHandThumb1 -24.326973 -0.000000 -32.862282
LeftUpLeg -15.695200 0.876583 7.210835
LeftLeg 5.878908 -0.000000 -0.000000
LeftFoot -8.369998 16.128885 -8.764789
LeftToeBase -9.641598 -0.000000 0.000000
RightUpLeg -49.660073 -17.338832 8.312109
RightLeg 67.254832 -0.000000 -0.000000
RightFoot 13.980646 6.488528 19.832554
RightToeBase 13.692137 -0.000000 -0.000000
243
root 5.535411 33.130314 -10.397390 16.497764 -13.850792 -12.787851
Spine -7.489117 3.236178 1.222341
Head 8.021447 -9.556891 13.869528
LeftShoulder -16.412441 44.077016 17.544034
LeftArm 49.095595 -18.237359 -93.402940
LeftForeArm -2.395691 0.000000 23.744659
LeftHand 11.144859 0.000000 8.871381
LeftHandThumb1 -26.253704 0.000000 33.147579
RightShoulder -1.006158 2.817639 -14.514445
RightArm 22.676258 -10.154376 90.573330
RightForeArm 7.150060 -0.000000 14.025591
RightHand 6.811463 -0.000000 1.981558
RightHandThumb1 -24.326973 -0.000000 -32.862282
LeftUpLeg -15.674963 1.129572 7.296139
LeftLeg 5.934769 -0.000000 -0.000000
LeftFoot -8.353820 15.855343 -8.906601
LeftToeBase -9.636473 -0.000000 0.000000
RightUpLeg -50.466672 -17.971338 8.455867
RightLeg 68.912719 -0.000000 -0.000000
RightFoot 14.511894 5.795806 19.303592
RightToeBase 14.338113 -0.000000 -0.000000
244
root 5.551929 33.141978 -10.392039 16.502159 -13.862332 -12.963552
Spine -7.488750 3.311206 1.432548
Head 8.011342 -9.450861 13.800220
LeftShoulder -16.424649 44.068122 17.533380
LeftArm 49.165009 -18.186711 -93.368666
LeftForeArm -2.372246 -0.000000 23.707529
LeftHand 11.151222 0.000000 8.780380
LeftHandThumb1 -26.253704 0.000000 33.147579
RightShoulder -0.972942 2.805154 -14.498902
RightArm 22.746877 -10.299722 90.575219
RightForeArm 7.402228 0.000000 13.985251
RightHand 6.870472 -0.000000 2.543443
RightHandThumb1 -24.326973 -0.000000 -32.862282
LeftUpLeg -15.628368 1.313502 7.416245
LeftLeg 5.932478 -0.000000 -0.000000
LeftFoot -8.306749 15.671769 -9.025595
LeftToeBase -9.653046 -0.000000 0.000000
RightUpLeg -51.251677 -18.631508 8.625756
RightLeg 70.526803 -0.000000 -0.000000
RightFoot 14.933313 5.152225 18.745153
RightToeBase 15.588817 -0.000000 -0.000000
245
root 5.569286 33.153431 -10.384079 16.493069 -13.850531 -13.111170
Spine -7.489076 3.346675 1.630903
Head 8.023040 -9.324188 13.717041
LeftShoulder -16.436919 44.033282 17.512180
LeftArm 49.204002 -18.182087 -93.332546
LeftForeArm -2.377462 -0.000000 23.667646
LeftHand 11.158547 -0.000000 8.686477
LeftHandThumb1 -26.253704 0.000000 33.147579
RightShoulder -0.908786 2.828978 -14.486914
RightArm 22.746661 -10.379383 90.590503
RightForeArm 7.322752 0.000000 13.946114
RightHand 6.895676 -0.000000 2.631704
RightHandThumb1 -24.326973 -0.000000 -32.862282
LeftUpLeg -15.574154 1.541761 7.492302
LeftLeg 5.921153 -0.000000 -0.000000
LeftFoot -8.226540 15.452100 -9.060081
LeftToeBase -9.678428 -0.000000 0.000000
RightUpLeg -52.019921 -19.341716 8.771649
RightLeg 72.125942 -0.000000 -0.000000
RightFoot 15.305625 4.535133 18.208242
RightToeBase 16.666793 -0.000000 -0.000000
